ACDC Live At River Plate Mkv 1080p Ac3 5.1 640Kbps 



General 
Unique ID : 203424310592215823355585425765952140449 (0x990A18DCC38670D19DBF8835F0FC34A1) 
Complete name : C:UsersMARCVideosNew folderACDC Live At River Plate Mkv 1080p Ac3 5.1 640Kbps.mkv 
Format : Matroska 
Format version : Version 2 
File size : 6.78 GiB 
Duration : 1h 51mn 
Overall bit rate mode : Variable 
Overall bit rate : 8 705 Kbps 
Movie name : video 
Encoded date : UTC 2012-10-13 01:58:06 
Writing application : mkvmerge v5.7.0 ('The Whirlwind') built on Jul 8 2012 20:08:51 
Writing library : libebml v1.2.3 + libmatroska v1.3.0 

Video 
ID : 1 
Format : AVC 
Format/Info : Advanced Video Codec 
Format profile : High@L4.0 
Format settings, CABAC : Yes 
Format settings, ReFrames : 3 frames 
Codec ID : V_MPEG4/ISO/AVC 
Duration : 1h 51mn 
Bit rate mode : Variable 
Bit rate : 7 891 Kbps 
Maximum bit rate : 25.0 Mbps 
Width : 1 920 pixels 
Height : 1 080 pixels 
Display aspect ratio : 16:9 
Frame rate mode : Constant 
Frame rate : 23.976 fps 
Color space : YUV 
Chroma subsampling : 4:2:0 
Bit depth : 8 bits 
Scan type : Progressive 
Bits/(Pixel*Frame) : 0.159 
Stream size : 6.15 GiB (91%) 
Writing library : x264 core 125 r2208 d9d2288 
Encoding settings : cabac=1 / ref=3 / deblock=1:0:0 / analyse=0x3:0x113 / me=hex / subme=7 / psy=1 / psy_rd=1.00:0.00 / mixed_ref=1 / me_range=16 / chroma_me=1 / trellis=1 / 8x8dct=1 / cqm=0 / deadzone=21,11 / fast_pskip=1 / chroma_qp_offset=-2 / threads=12 / lookahead_threads=2 / sliced_threads=0 / nr=0 / decimate=1 / interlaced=0 / bluray_compat=0 / constrained_intra=0 / bframes=3 / b_pyramid=0 / b_adapt=1 / b_bias=0 / direct=1 / weightb=1 / open_gop=0 / weightp=2 / keyint=240 / keyint_min=24 / scenecut=40 / intra_refresh=0 / rc_lookahead=40 / rc=crf / mbtree=1 / crf=24.0 / qcomp=0.60 / qpmin=0 / qpmax=69 / qpstep=4 / vbv_maxrate=25000 / vbv_bufsize=25000 / crf_max=0.0 / nal_hrd=vbr / ip_ratio=1.40 / aq=1:1.00 
Default : Yes 
Forced : No 

Audio 
ID : 2 
Format : AC-3 
Format/Info : Audio Coding 3 
Mode extension : CM (complete main) 
Format settings, Endianness : Big 
Codec ID : A_AC3 
Duration : 1h 51mn 
Bit rate mode : Constant 
Bit rate : 640 Kbps 
Channel(s) : 6 channels 
Channel positions : Front: L C R, Side: L R, LFE 
Sampling rate : 48.0 KHz 
Bit depth : 16 bits 
Compression mode : Lossy 
Stream size : 510 MiB (7%) 
Language : English 
Default : Yes 
Forced : No 

Menu 
00:00:00.000 : en:00:00:00.000 
00:01:13.490 : en:00:01:13.490 
00:05:43.468 : en:00:05:43.468 
00:10:00.016 : en:00:10:00.016 
00:14:10.183 : en:00:14:10.183 
00:18:12.174 : en:00:18:12.174 
00:22:58.127 : en:00:22:58.127 
00:26:29.046 : en:00:26:29.046 
00:32:05.841 : en:00:32:05.841 
00:35:39.429 : en:00:35:39.429 
00:46:24.615 : en:00:46:24.615 
00:52:00.659 : en:00:52:00.659 
00:57:52.886 : en:00:57:52.886 
01:01:15.005 : en:01:01:15.005 
01:05:52.740 : en:01:05:52.740 
01:09:44.097 : en:01:09:44.097 
01:13:40.791 : en:01:13:40.791 
01:19:21.340 : en:01:19:21.340 
01:37:05.153 : en:01:37:05.153 
01:41:48.185 : en:01:41:48.185 

Track List:
1. Rock N Roll Train
2. Hell Ain't A Bad Place To Be
3. Back In Black
4. Big Jack
5. Dirty Deeds Done Dirt Cheap
6. Shot Down In Flames
7. Thunderstruck
8. Black Ice
9. The Jack
10. Hells Bells
11. Shoot To Thrill
12. War Machine
13. Dog Eat Dog
14. You Shook Me All Night Long
15. T.N.T.
16. Whole Lotta Rosie
17. Let There Be Rock
18. Highway To Hell
19. For Those About To Rock (We Salute You)